#N canvas 262 333 392 412 10;
#X obj 23 43 sig~;
#X obj 24 27 hsl 64 12 0 1 0 0 empty empty speed 16 6 1 8 -262144 -1
-1 12700 1;
#N canvas 974 276 612 501 turbine 1;
#X obj 0 129 osc~;
#X obj 39 128 osc~;
#X obj 78 127 osc~;
#X obj 116 127 osc~;
#X obj 156 129 osc~;
#X obj 13 42 unpack f f f f f;
#X obj 0 68 sig~;
#X obj 38 68 sig~;
#X obj 78 67 sig~;
#X obj 116 67 sig~;
#X obj 155 67 sig~;
#X obj 0 97 *~;
#X obj 39 95 *~;
#X obj 79 93 *~;
#X obj 116 91 *~;
#X obj 156 92 *~;
#X obj 137 165 *~ 0.4;
#X obj 13 0 loadbang;
#X obj 77 217 outlet~;
#X obj 169 21 inlet~ engine speed;
#X obj 19 165 *~ 0.5;
#X obj 77 196 clip~ -0.5 0.5;
#X msg 13 21 845 12659 5872 8324 13811;
#X connect 0 0 20 0;
#X connect 1 0 20 0;
#X connect 2 0 21 0;
#X connect 3 0 16 0;
#X connect 4 0 16 0;
#X connect 5 0 6 0;
#X connect 5 1 7 0;
#X connect 5 2 8 0;
#X connect 5 3 9 0;
#X connect 5 4 10 0;
#X connect 6 0 11 0;
#X connect 7 0 12 0;
#X connect 8 0 13 0;
#X connect 9 0 14 0;
#X connect 10 0 15 0;
#X connect 11 0 0 0;
#X connect 12 0 1 0;
#X connect 13 0 2 0;
#X connect 14 0 3 0;
#X connect 15 0 4 0;
#X connect 16 0 21 0;
#X connect 17 0 22 0;
#X connect 19 0 15 1;
#X connect 19 0 14 1;
#X connect 19 0 13 1;
#X connect 19 0 12 1;
#X connect 19 0 11 1;
#X connect 20 0 21 0;
#X connect 21 0 18 0;
#X connect 22 0 5 0;
#X restore -1 89 pd turbine;
#X obj 1 197 dac~;
#X obj 19 6 r velocity;
#N canvas 1318 14 552 997 r2d2 1;
#X obj 163 626 +~;
#X obj 163 648 cos~;
#X obj 179 469 phasor~;
#X obj 242 577 osc~;
#X obj 179 238 random 1000;
#X obj 179 260 / 1000;
#X obj 179 404 line~;
#X obj 179 381 pack f f;
#X obj 179 283 t f b;
#X obj 230 313 random 2;
#X obj 230 359 *;
#X obj 147 674 *~;
#X obj 147 699 lop~ 10000;
#X obj 147 721 lop~ 10000;
#X obj 147 743 hip~ 100;
#X obj 147 765 hip~ 100;
#X obj 242 551 *~;
#X obj 242 600 *~;
#X obj 163 506 *~;
#X obj 130 470 +~ 100;
#X obj 45 174 s period;
#X obj 246 337 r period;
#X obj 47 381 line~;
#X obj 47 359 pack f f;
#X obj 98 291 random 2;
#X obj 98 337 *;
#X obj 114 315 r period;
#X obj 116 237 s change;
#X obj 47 218 r change;
#X obj 12 290 random 9000;
#X obj 47 239 random 3;
#X obj 47 261 sel 0;
#X obj 36 635 line~;
#X obj 36 613 pack f f;
#X obj 87 524 random 2;
#X obj 87 570 *;
#X obj 103 548 r period;
#X obj 36 451 r change;
#X obj 36 494 sel 0;
#X obj 1 523 random 2;
#X obj 36 472 random 2;
#X obj 279 553 line~;
#X obj 279 531 pack f f;
#X obj 330 463 random 2;
#X obj 330 509 *;
#X obj 346 487 r period;
#X obj 279 390 r change;
#X obj 279 433 sel 0;
#X obj 279 576 +~ 0.2;
#X obj 244 462 random 100;
#X obj 244 485 / 200;
#X obj 279 411 random 4;
#X obj 369 406 line~;
#X obj 369 384 pack f f;
#X obj 420 319 random 2;
#X obj 420 362 *;
#X obj 436 340 r period;
#X obj 369 249 r change;
#X obj 369 292 sel 0;
#X obj 334 318 random 800;
#X obj 369 428 +~ 20;
#X obj 369 270 random 4;
#X obj 179 440 *~ 0.6;
#X obj 144 89 r period;
#X obj 179 216 metro;
#X obj 209 2 r change;
#X obj 209 23 random 3;
#X obj 209 45 sel 0;
#X obj 209 66 random 2;
#X obj 209 87 + 1;
#X obj 209 131 /;
#X obj 209 108 t b f;
#X obj 179 154 loadbang;
#X obj 179 174 del 100;
#X msg 179 195 1;
#X obj 87 591 + 3;
#X obj 48 115 hsl 64 12 0 1 0 1 empty empty talk-speed 8 6 1 8 -262144
-1 -1 4000 1;
#X obj 45 132 * 600;
#X obj 45 152 + 100;
#X obj 147 811 dac~;
#X obj 311 763 hsl 128 15 0 1 0 0 empty empty empty -2 -8 0 10 -262144
-1 -1 0 1;
#X obj 147 788 *~ 0.06;
#X connect 0 0 1 0;
#X connect 1 0 11 1;
#X connect 2 0 18 1;
#X connect 3 0 17 0;
#X connect 4 0 5 0;
#X connect 5 0 8 0;
#X connect 6 0 62 0;
#X connect 7 0 6 0;
#X connect 8 0 7 0;
#X connect 8 1 9 0;
#X connect 9 0 10 0;
#X connect 10 0 7 1;
#X connect 11 0 12 0;
#X connect 12 0 13 0;
#X connect 13 0 14 0;
#X connect 14 0 15 0;
#X connect 15 0 81 0;
#X connect 16 0 3 0;
#X connect 17 0 0 1;
#X connect 18 0 0 0;
#X connect 19 0 18 0;
#X connect 21 0 10 1;
#X connect 22 0 19 0;
#X connect 23 0 22 0;
#X connect 24 0 25 0;
#X connect 25 0 23 1;
#X connect 26 0 25 1;
#X connect 28 0 30 0;
#X connect 29 0 23 0;
#X connect 30 0 31 0;
#X connect 31 0 29 0;
#X connect 31 0 24 0;
#X connect 32 0 11 0;
#X connect 33 0 32 0;
#X connect 34 0 35 0;
#X connect 35 0 75 0;
#X connect 36 0 35 1;
#X connect 37 0 40 0;
#X connect 38 0 34 0;
#X connect 38 0 39 0;
#X connect 39 0 33 0;
#X connect 40 0 38 0;
#X connect 41 0 48 0;
#X connect 42 0 41 0;
#X connect 43 0 44 0;
#X connect 44 0 42 1;
#X connect 45 0 44 1;
#X connect 46 0 51 0;
#X connect 47 0 43 0;
#X connect 47 0 49 0;
#X connect 48 0 17 1;
#X connect 49 0 50 0;
#X connect 50 0 42 0;
#X connect 51 0 47 0;
#X connect 52 0 60 0;
#X connect 53 0 52 0;
#X connect 54 0 55 0;
#X connect 55 0 53 1;
#X connect 56 0 55 1;
#X connect 57 0 61 0;
#X connect 58 0 54 0;
#X connect 58 0 59 0;
#X connect 59 0 53 0;
#X connect 60 0 16 1;
#X connect 61 0 58 0;
#X connect 62 0 2 0;
#X connect 62 0 16 0;
#X connect 63 0 70 0;
#X connect 64 0 4 0;
#X connect 64 0 27 0;
#X connect 65 0 66 0;
#X connect 66 0 67 0;
#X connect 67 0 68 0;
#X connect 68 0 69 0;
#X connect 69 0 71 0;
#X connect 70 0 64 1;
#X connect 71 0 70 0;
#X connect 71 1 70 1;
#X connect 72 0 73 0;
#X connect 73 0 74 0;
#X connect 74 0 64 0;
#X connect 75 0 33 1;
#X connect 76 0 77 0;
#X connect 77 0 78 0;
#X connect 78 0 20 0;
#X connect 80 0 81 1;
#X connect 81 0 79 0;
#X connect 81 0 79 1;
#X restore 124 87 pd r2d2;
#X obj 0 175 *~ 0.2;
#N canvas 672 138 289 621 burn 1;
#X obj 0 44 noise~;
#X obj 73 -18 loadbang;
#X msg 102 17 0.6;
#X obj 32 -52 inlet~;
#X obj 2 227 outlet~;
#X obj 25 17 *~ 150;
#X obj 25 -4 *~;
#X msg 73 17 1;
#X obj 0 149 clip~ -0.9 0.9;
#X obj 31 170 *~ 500;
#X obj 0 128 *~ 2;
#X obj 0 107 hip~ 200;
#X obj 2 194 vcf~ 0 0.1;
#X obj 0 86 vcf~ 0 1;
#X obj 0 66 bp~ 200 2;
#X connect 0 0 14 0;
#X connect 1 0 2 0;
#X connect 1 0 7 0;
#X connect 2 0 12 2;
#X connect 3 0 6 0;
#X connect 3 0 6 1;
#X connect 3 0 9 0;
#X connect 5 0 13 1;
#X connect 6 0 5 0;
#X connect 7 0 13 2;
#X connect 8 0 12 0;
#X connect 9 0 12 1;
#X connect 10 0 8 0;
#X connect 11 0 10 0;
#X connect 12 0 4 0;
#X connect 13 0 11 0;
#X connect 14 0 13 0;
#X restore 63 106 pd burn;
#X obj 3 132 +~;
#X obj 22 66 lop~ 1;
#X obj 4 111 *~ 0.2;
#X obj 0 155 lop~ 2000;
#X connect 0 0 9 0;
#X connect 1 0 0 0;
#X connect 2 0 10 0;
#X connect 4 0 1 0;
#X connect 6 0 3 0;
#X connect 6 0 3 1;
#X connect 7 0 8 1;
#X connect 8 0 11 0;
#X connect 9 0 2 0;
#X connect 9 0 7 0;
#X connect 10 0 8 0;
#X connect 11 0 6 0;
